Coordinates
version=1
nRows=14
nColumns=36
inDegrees=yes

Units are S.I. units (second, meters, Newtons, ...)
If the header above contains a line with 'inDegrees', this indicates whether rotational values are in degrees (yes) or radians (no).

endheader
time	pelvis_tilt	pelvis_list	pelvis_rotation	pelvis_tx	pelvis_ty	pelvis_tz	hip_flexion_r	hip_adduction_r	hip_rotation_r	knee_angle_r	knee_angle_r_beta	ankle_angle_r	subtalar_angle_r	mtp_angle_r	hip_flexion_l	hip_adduction_l	hip_rotation_l	knee_angle_l	knee_angle_l_beta	ankle_angle_l	subtalar_angle_l	mtp_angle_l	lumbar_extension	lumbar_bending	lumbar_rotation	arm_flex_r	arm_add_r	arm_rot_r	elbow_flex_r	pro_sup_r	arm_flex_l	arm_add_l	arm_rot_l	elbow_flex_l	pro_sup_l
      1.92916670	     -6.64890390	     -0.18706523	     -2.25152555	     -1.01383271	      1.37438665	     -0.07850639	      2.91570712	      1.65858959	    -17.74814909	      0.12348574	      0.00215523	      9.36168745	     -3.76392531	     -7.49999987	      2.56608803	     -0.21820795	    -25.71399262	      0.07852129	      0.00137046	      9.82390928	      5.15249852	     -7.49999987	     -0.40142561	     -0.50694919	      0.21885329	     -2.50698406	     -4.44145274	     11.27735988	     30.39582275	     75.23249743	     -1.25897176	    -10.69013019	     16.98388255	     33.14153566	     90.88366595
      1.93333330	     -6.56463626	     -0.20670514	     -2.24535499	     -1.01275190	      1.37394121	     -0.07736110	      2.76904681	      1.71663873	    -17.89544039	      0.12268607	      0.00214128	      9.44274074	     -3.55443357	     -7.49999987	      2.44116316	     -0.25749909	    -25.67857677	      0.07831283	      0.00136682	      9.80904938	      5.21001307	     -7.49999987	     -0.40814021	     -0.51508130	      0.20730347	     -2.53078269	     -4.40685385	     11.43492467	     30.34748348	     74.07186810	     -1.31527908	    -10.76296457	     17.33976982	     33.18329078	     88.58370636
      1.93750000	     -6.57670907	     -0.20490354	     -2.23007858	     -1.01535395	      1.37392607	     -0.07857619	      2.79212994	      1.73419766	    -17.71148450	      0.12216808	      0.00213224	      9.44101337	     -3.78794855	     -7.49999987	      2.48025680	     -0.25403897	    -25.65228217	      0.07839303	      0.00136822	      9.90726021	      5.11755980	     -7.49999987	     -0.39057424	     -0.51650758	      0.25925712	     -2.54321132	     -4.41254441	     11.27604116	     30.40160746	     75.20721023	     -1.23022627	    -10.75607812	     17.18394673	     33.09484478	     90.72288847
      1.94166670	     -6.55910243	     -0.17176130	     -2.19391438	     -1.01642506	      1.37396850	     -0.07968039	      2.80829744	      1.68242612	    -17.60096642	      0.12089857	      0.00211008	      9.37339011	     -3.95662156	     -7.49999987	      2.50861854	     -0.20762266	    -25.46473532	      0.07849917	      0.00137007	      9.84802843	      4.77166894	     -7.49999987	     -0.45031095	     -0.53058132	      0.20114023	     -2.44073033	     -4.37695324	     11.16040722	     30.37529362	     74.31726058	     -1.17865905	    -10.70492210	     17.15138571	     33.08622405	     88.76182119
      1.94583330	     -6.54025664	     -0.14659250	     -2.16368518	     -1.01594483	      1.37355163	     -0.07893631	      2.82235779	      1.64877289	    -17.56614240	      0.12082846	      0.00210885	      9.42155208	     -3.96330728	     -7.49999987	      2.53110121	     -0.17838306	    -25.48188495	      0.07846876	      0.00136954	      9.85659021	      4.67188261	     -7.49999987	     -0.51612504	     -0.55414127	      0.18062783	     -2.37019094	     -4.37758063	     11.23337992	     30.38232327	     73.76224416	     -1.12079173	    -10.71457616	     17.30520794	     33.10791985	     87.78377262
      1.95000000	     -6.53377176	     -0.11173125	     -2.11474860	     -1.01503539	      1.37333736	     -0.07859517	      2.80764437	      1.59827223	    -17.59205643	      0.12031073	      0.00209982	      9.41320623	     -4.03268592	     -7.49999987	      2.52399091	     -0.12918748	    -25.50896332	      0.07879096	      0.00137516	      9.84827960	      4.64744330	     -7.49999987	     -0.51423200	     -0.59750713	      0.18340569	     -2.34900356	     -4.37218814	     11.32034086	     30.33816181	     73.50881204	     -1.06880865	    -10.75850902	     17.46146395	     33.07890110	     87.37607562
      1.95416670	     -6.50676286	     -0.10267187	     -2.10360928	     -1.01673544	      1.36873398	     -0.07842815	      2.81139741	      1.58635903	    -17.54983387	      0.12121646	      0.00211563	      9.61965997	     -3.91912107	     -7.49999987	      2.49291947	     -0.10955707	    -25.58151459	      0.07899252	      0.00137868	      9.91064305	      4.39105433	     -7.49999987	     -0.58088401	     -0.59545451	      0.26665121	     -2.34621907	     -4.41100077	     11.44394671	     30.39756488	     73.43815241	     -0.97787800	    -10.79503620	     17.67061406	     33.17497208	     87.29281299
      1.95833330	     -6.45026904	     -0.09756833	     -2.07077513	     -1.01250705	      1.37168243	     -0.07656277	      2.69890822	      1.60205008	    -17.59155451	      0.12061170	      0.00210507	      9.66611658	     -3.86236798	     -7.49999987	      2.38031289	     -0.13606585	    -25.61134191	      0.07895830	      0.00137808	      9.91095383	      4.45839562	     -7.49999987	     -0.52739266	     -0.64828584	      0.23331172	     -2.40649607	     -4.37727928	     11.51341150	     30.38569188	     72.86312852	     -1.03371160	    -10.88651387	     17.90435396	     33.17878914	     86.20466407
      1.96250000	     -6.49150443	     -0.11919375	     -2.13008783	     -1.01191600	      1.37440665	     -0.07604941	      2.69313272	      1.67364808	    -17.58705552	      0.12037720	      0.00210098	      9.69589482	     -3.68703429	     -7.49999987	      2.35350873	     -0.20514797	    -25.81415323	      0.07867412	      0.00137312	      9.93335637	      4.71164096	     -7.49999987	     -0.38567734	     -0.66134158	      0.29841196	     -2.64687647	     -4.27912671	     10.99283865	     30.58703592	     75.27998211	     -1.27557787	    -10.82699595	     16.78645415	     33.41632063	     91.13975803
      1.96666670	     -6.36851437	     -0.13677653	     -2.08720131	     -1.01334991	      1.37011211	     -0.07654051	      2.52819886	      1.72419998	    -17.29342571	      0.11911693	      0.00207898	      9.57942350	     -4.30285518	     -7.49999987	      2.20438225	     -0.23101949	    -25.38225343	      0.07867793	      0.00137319	      9.77455952	      3.78105678	     -7.49999987	     -0.48312628	     -0.68256421	      0.18976292	     -2.60049281	     -4.21973928	     11.02623321	     30.50886891	     74.18858462	     -1.26610521	    -10.84671911	     16.90848154	     33.32616485	     88.94095453
      1.97083330	     -6.41815734	     -0.11846373	     -2.10468382	     -1.01154942	      1.37550650	     -0.07515078	      2.54470848	      1.74367376	    -17.51936591	      0.11817366	      0.00206252	      9.69243274	     -3.81060457	     -7.49999987	      2.20769602	     -0.27538357	    -25.72527569	      0.07846357	      0.00136945	      9.78868418	      4.25695209	     -7.49999987	     -0.25888318	     -0.79679300	      0.16028732	     -2.73176621	     -4.15043970	     11.17109283	     30.45760876	     73.91914291	     -1.40352883	    -10.97576721	     17.11006780	     33.29290856	     88.35885069
      1.97500000	     -6.47078309	     -0.10545889	     -2.18750247	     -1.01324588	      1.37417744	     -0.07738940	      2.59338237	      1.73533264	    -17.36199256	      0.11691643	      0.00204058	      9.75111555	     -3.82235533	     -7.49999987	      2.23434078	     -0.27043597	    -26.02312496	      0.07862457	      0.00137226	      9.91690920	      4.43009096	     -7.49999987	     -0.10017443	     -0.80240311	      0.21600560	     -2.76740254	     -4.16084624	     11.30009448	     30.47460135	     73.35063462	     -1.45886028	    -10.97423598	     17.36833141	     33.32495596	     87.08520687
      1.97916670	     -6.48059181	     -0.08550855	     -2.22401548	     -1.01413688	      1.37371297	     -0.07631866	      2.61880838	      1.73544765	    -17.41041750	      0.11545435	      0.00201506	      9.74449416	     -3.77402886	     -7.49999987	      2.25926158	     -0.25611522	    -26.25967177	      0.07829748	      0.00136655	      9.95222528	      4.45444467	     -7.49999987	     -0.05397743	     -0.85442231	      0.22463116	     -2.76040551	     -4.16628440	     11.42079272	     30.50809684	     73.09629153	     -1.45408075	    -11.03408154	     17.58744221	     33.34188997	     86.57212101
      1.98333330	     -6.63823065	     -0.05449971	     -2.27641693	     -1.01502678	      1.37405228	     -0.07626625	      2.82328935	      1.71975255	    -17.42406525	      0.11538764	      0.00201389	      9.76191065	     -3.69470364	     -7.49999987	      2.45517050	     -0.23128374	    -26.56361145	      0.07812123	      0.00136347	     10.06824038	      4.72274880	     -7.49999987	      0.15549036	     -0.90179629	      0.36421930	     -2.80821551	     -4.26416580	     11.77792775	     30.58983758	     73.92959922	     -1.37225197	    -11.16133337	     17.99854188	     33.32598122	     88.44378194
